<svg id="Grupo_3380" data-name="Grupo 3380" xmlns="http://www.w3.org/2000/svg" xmlns:xlink="http://www.w3.org/1999/xlink" width="14.087" height="13.293" viewBox="0 0 14.087 13.293">
  <defs>
    <clipPath id="clip-path">
      <rect id="Retângulo_530" data-name="Retângulo 530" width="14.087" height="13.293" fill="none"/>
    </clipPath>
  </defs>
  <g id="Grupo_3380-2" data-name="Grupo 3380" clip-path="url(#clip-path)">
    <path id="Caminho_412" data-name="Caminho 412" d="M13.953.881A1.4,1.4,0,0,0,12.564,0H1.509a1.4,1.4,0,0,0-.292.017,1.423,1.423,0,0,0-1.138.995A1.42,1.42,0,0,0,.42,2.484Q2.759,5.055,5.1,7.625a.427.427,0,0,1,.123.315c0,1.6,0,3.191,0,4.786a.517.517,0,0,0,.288.5.5.5,0,0,0,.575-.068q1.284-1.024,2.567-2.05a.569.569,0,0,0,.222-.48c-.005-.912,0-1.823,0-2.735a.31.31,0,0,1,.087-.23Q11.308,5.08,13.66,2.488A1.406,1.406,0,0,0,13.953.881m-.947.676a.5.5,0,0,1-.14.233L9.442,5.564C8.971,6.082,8.5,6.6,8.029,7.117a.738.738,0,0,0-.209.54c.008.874,0,1.748,0,2.621,0,.062.018.125-.047.177-.5.4-.994.8-1.515,1.22,0-1.37,0-2.705,0-4.04a.674.674,0,0,0-.186-.484Q3.667,4.5,1.261,1.85a.556.556,0,0,1-.207-.423.427.427,0,0,1,.382-.383.9.9,0,0,1,.114,0H12.525c.343,0,.542.216.481.516" transform="translate(0 0.001)" fill="#040506"/>
  </g>
</svg>
