<svg xmlns="http://www.w3.org/2000/svg" width="17.701" height="22.273" viewBox="0 0 17.701 22.273">
  <path id="Caminho_29" data-name="Caminho 29" d="M-1369.039,492.074a1.709,1.709,0,0,0-1.753-1.749c-.5-.019-1.008-.005-1.513-.005h-1.5v-.364a1.856,1.856,0,0,0-1.854-1.854h-4.444a1.856,1.856,0,0,0-1.854,1.854v.357c-.978,0-1.929-.007-2.88.006a1.753,1.753,0,0,0-1.889,1.892c-.012.482,0,.964,0,1.447,0,1.224,0,1.224,1.172,1.49v.827q0,6.182,0,12.364a1.8,1.8,0,0,0,2.013,2.035q5.59,0,11.18,0c1.508,0,2.141-.64,2.142-2.168q0-6.182,0-12.364v-.694c1.173-.255,1.173-.255,1.173-1.426C-1369.033,493.169-1369.018,492.621-1369.039,492.074Zm-11.995-2.118a.934.934,0,0,1,.933-.933h4.444a.934.934,0,0,1,.933.933v.269h-6.31Zm9.619,18.221c0,.893-.094.987-.977.988-3.685,0-7.369,0-11.053.009-.527,0-.9-.1-.9-.741q.014-6.513.011-13.026a3.13,3.13,0,0,1,.045-.328h12.839c.016.219.043.409.043.6Q-1371.409,501.927-1371.414,508.177Zm1.191-14.349h-15.293c0-.626-.035-1.214.01-1.8.043-.546.494-.525.9-.524l8.674,0c1.6,0,3.2-.007,4.8,0,.792,0,.9.123.914.927C-1370.218,492.89-1370.223,493.343-1370.223,493.828Z" transform="translate(1386.729 -488.101)"/>
</svg>
