<svg height="21.493" width="21.47" xmlns="http://www.w3.org/2000/svg"><path d="M.002 11.483c0-2.442-.005-4.884 0-7.325a2.318 2.318 0 0 1 2.512-2.59c2.858-.029 5.717-.01 8.575-.008.569 0 1.145.067 1.119.817-.024.693-.574.725-1.109.724H2.881c-1.156 0-1.338.186-1.34 1.361q-.006 7.057 0 14.114c0 1.223.157 1.373 1.408 1.374h12.506c1.242 0 1.383-.144 1.386-1.387V12.31c0-.267-.073-.588.047-.79.174-.292.5-.7.746-.687s.529.433.736.718c.087.119.028.347.028.526 0 2.233.008 4.466 0 6.7-.008 1.842-.9 2.713-2.762 2.714H2.684a2.374 2.374 0 0 1-2.685-2.683q-.001-3.663.003-7.325z"/><path d="M18.081 0c1.592.1 2.49.6 3.034 1.64a2.719 2.719 0 0 1-.228 3.025 10.082 10.082 0 0 1-1.085 1.183c-2.837 2.844-5.658 5.7-8.537 8.5a6.888 6.888 0 0 1-2.076 1.278 25.79 25.79 0 0 1-3.2 1.09 1.44 1.44 0 0 1-1.129-.115c-.2-.157-.208-.72-.11-1.046.41-1.365.875-2.714 1.361-4.055a2.522 2.522 0 0 1 .6-.868c3.169-3.185 6.329-6.379 9.547-9.515A8.27 8.27 0 0 1 18.081 0zM6.709 14.65l.179.279a11.289 11.289 0 0 0 3.042-1.475c3.16-2.978 6.181-6.1 9.251-9.175a3.124 3.124 0 0 0 .464-.539 1.292 1.292 0 0 0-.152-1.714 1.281 1.281 0 0 0-1.708-.189 3.381 3.381 0 0 0-.608.52c-2.8 2.795-5.548 5.646-8.422 8.363a7.8 7.8 0 0 0-2.046 3.93z"/></svg>