<svg xmlns="http://www.w3.org/2000/svg" xmlns:xlink="http://www.w3.org/1999/xlink" width="21.708" height="21.698" viewBox="0 0 21.708 21.698">
  <defs>
    <clipPath id="clip-path">
      <rect id="Retângulo_429" data-name="Retângulo 429" width="21.708" height="21.698"/>
    </clipPath>
  </defs>
  <g id="Grupo_1121" data-name="Grupo 1121" transform="translate(0)">
    <g id="Grupo_1102" data-name="Grupo 1102" transform="translate(0)" clip-path="url(#clip-path)">
      <path id="Caminho_398" data-name="Caminho 398" d="M21.289,19.625q-2.679-2.677-5.356-5.355c-.215-.215-.214-.215-.045-.451a8.788,8.788,0,0,0,1.638-4.71,8.181,8.181,0,0,0-.256-2.494A8.65,8.65,0,0,0,14.6,2.19,8.762,8.762,0,0,0,10.933.22,8.6,8.6,0,0,0,9.478,0H9.351a.1.1,0,0,1-.127,0H9.012a1.091,1.091,0,0,1-.335.022c-.1-.011-.2.024-.3-.022H8.039c-.206.044-.418.028-.625.059A8.6,8.6,0,0,0,2.674,2.4,8.961,8.961,0,0,0,.78,5.072,8.616,8.616,0,0,0,.059,9.755a8.426,8.426,0,0,0,2.486,5.157,8.565,8.565,0,0,0,2.444,1.718,8.748,8.748,0,0,0,8.871-.778c.241-.169.244-.165.453.043l5.324,5.324a3.039,3.039,0,0,0,.3.266,1.125,1.125,0,0,0,1.772-.664V20.4a1.14,1.14,0,0,0-.42-.773M8.754,15.272a6.553,6.553,0,1,1,6.56-6.544,6.576,6.576,0,0,1-6.56,6.544" transform="translate(0)"/>
    </g>
  </g>
</svg>
